<?xml version="1.0" encoding="UTF-8" standalone="no"?>
<!DOCTYPE svg PUBLIC "-//W3C//DTD SVG 1.1//EN" "http://www.w3.org/Graphics/SVG/1.1/DTD/svg11.dtd">
<svg xmlns="http://www.w3.org/2000/svg" version="1.1" viewBox="0.00 0.00 1080.00 1080.00">
<g stroke-width="2.00" fill="none" stroke-linecap="butt">
<path stroke="#58ba32" vector-effect="non-scaling-stroke" d="
  M 680.24 451.20
  Q 679.37 451.89 677.04 450.18"
/>
<path stroke="#80d260" vector-effect="non-scaling-stroke" d="
  M 677.04 450.18
  Q 683.16 450.03 688.82 449.30
  C 691.02 449.02 693.68 449.08 695.50 448.78
  Q 704.05 447.40 712.56 445.81
  C 745.38 439.66 769.48 417.59 785.07 389.09
  Q 786.97 385.63 789.04 382.27
  A 0.88 0.87 -54.4 0 0 788.86 381.14
  L 763.09 359.60
  A 2.04 2.03 55.4 0 0 761.13 359.24
  Q 733.99 368.45 706.11 375.17
  A 0.44 0.44 0.0 0 0 705.90 375.90
  Q 721.08 391.63 736.15 407.26
  Q 738.35 409.55 738.82 410.67
  C 740.26 414.13 736.62 418.37 733.04 417.46
  Q 731.32 417.03 729.06 414.68
  Q 711.55 396.58 694.24 378.56
  A 1.34 1.34 0.0 0 0 692.99 378.18
  Q 665.88 384.15 638.26 387.04
  A 0.41 0.40 64.3 0 0 638.02 387.73
  Q 653.17 403.08 668.32 418.43
  C 673.39 423.56 666.66 431.53 660.43 425.19
  Q 642.53 406.98 624.88 388.86
  A 1.37 1.32 -22.5 0 0 623.87 388.46
  L 601.20 389.20
  Q 600.86 389.22 600.88 389.56
  C 602.50 409.03 601.51 437.50 573.62 434.97"
/>
<path stroke="#58ba32" vector-effect="non-scaling-stroke" d="
  M 573.62 434.97
  L 567.13 432.96
  A 1.29 1.27 -47.3 0 0 566.28 433.00
  L 561.90 434.75"
/>
<path stroke="#80d260" vector-effect="non-scaling-stroke" d="
  M 506.46 425.75
  Q 507.89 425.88 508.55 427.01
  Q 508.84 427.51 509.26 427.89
  L 512.93 431.23
  Q 513.28 431.55 513.76 431.67
  Q 514.45 431.83 515.09 432.09
  Q 516.29 432.59 516.67 431.62
  Q 516.85 431.15 517.19 430.78
  Q 522.56 424.88 525.42 417.38
  Q 529.55 406.60 533.05 395.57
  Q 533.20 395.08 533.00 394.62
  C 528.55 384.81 526.25 374.85 529.55 364.34
  Q 529.69 363.91 529.35 363.61
  L 521.61 356.55
  Q 521.22 356.20 520.70 356.28
  Q 519.23 356.50 517.24 357.59
  Q 509.01 362.09 504.35 368.12
  Q 503.87 368.74 503.28 368.81"
/>
<path stroke="#80d260" vector-effect="non-scaling-stroke" d="
  M 571.21 341.90
  Q 575.48 342.47 579.60 343.04
  C 596.27 345.36 597.70 365.58 599.81 379.10
  Q 599.83 379.18 599.88 379.12
  L 600.12 378.89
  A 0.51 0.51 0.0 0 1 600.49 378.73
  Q 611.36 378.90 622.20 378.13
  A 0.77 0.76 -81.8 0 0 622.87 377.62
  Q 629.44 359.55 636.06 341.40
  Q 637.79 336.64 642.16 337.56
  C 647.17 338.62 646.43 343.00 645.01 346.86
  Q 639.59 361.71 634.09 376.58
  A 0.40 0.40 0.0 0 0 634.50 377.12
  Q 662.91 374.40 690.78 368.17
  A 0.97 0.96 -88.9 0 0 691.50 367.47
  Q 698.07 343.26 704.55 319.07
  C 705.93 313.94 713.02 313.41 714.39 318.05
  Q 714.95 319.94 714.01 323.43
  Q 708.43 344.12 702.81 364.80
  A 0.43 0.43 0.0 0 0 703.32 365.33
  Q 731.42 358.56 758.78 349.26
  Q 759.30 349.08 759.47 348.56
  Q 769.13 319.62 778.66 290.63
  Q 779.51 288.03 780.31 287.07
  C 783.87 282.79 790.65 286.66 788.78 292.35
  Q 780.27 318.32 771.75 344.11
  A 0.46 0.46 0.0 0 0 772.35 344.68
  L 807.22 331.04
  A 1.47 1.47 0.0 0 0 808.14 329.48
  Q 808.02 328.50 808.37 327.00
  Q 812.57 309.15 815.36 291.04
  Q 816.45 283.96 815.86 278.75
  Q 814.47 266.52 804.63 258.13
  Q 800.53 254.64 794.72 251.53"
/>
<path stroke="#6fc24e" vector-effect="non-scaling-stroke" d="
  M 677.04 450.18
  Q 674.46 448.83 671.57 446.69
  Q 659.15 437.50 646.66 428.38
  C 643.28 425.90 640.04 424.17 637.05 428.05
  Q 628.37 439.32 620.92 446.93
  Q 619.14 448.75 616.86 448.31"
/>
<path stroke="#6fc24e" vector-effect="non-scaling-stroke" d="
  M 605.09 446.46
  Q 604.42 445.99 602.61 445.40
  C 598.16 443.95 597.11 435.89 592.74 433.89
  C 589.12 432.24 585.14 435.34 585.84 439.72
  Q 585.94 440.33 585.35 440.16
  Q 579.17 438.31 573.62 434.97"
/>
<path stroke="#6fc24e" vector-effect="non-scaling-stroke" d="
  M 497.33 407.27
  L 496.15 400.72"
/>
<path stroke="#6fc24e" vector-effect="non-scaling-stroke" d="
  M 495.97 399.77
  Q 496.46 398.23 497.46 398.72"
/>
<path stroke="#ca9168" vector-effect="non-scaling-stroke" d="
  M 497.46 398.72
  C 517.73 401.58 520.32 374.41 500.38 372.81"
/>
<path stroke="#6fc24e" vector-effect="non-scaling-stroke" d="
  M 500.38 372.81
  Q 502.22 373.08 502.51 369.96"
/>
<path stroke="#6fc24e" vector-effect="non-scaling-stroke" d="
  M 659.28 451.32
  Q 660.01 450.93 657.90 449.35
  Q 650.33 443.70 642.75 438.21
  A 0.33 0.32 -49.9 0 0 642.32 438.25
  Q 636.66 444.19 632.11 451.09"
/>
<path stroke="#a2783b" vector-effect="non-scaling-stroke" d="
  M 500.38 372.81
  Q 492.35 373.56 488.06 381.76"
/>
<path stroke="#a2783b" vector-effect="non-scaling-stroke" d="
  M 497.46 398.72
  L 490.89 395.08"
/>
<path stroke="#80d260" vector-effect="non-scaling-stroke" d="
  M 774.17 354.89
  A 0.32 0.32 0.0 0 0 774.08 355.43
  L 793.66 371.78
  A 0.32 0.32 0.0 0 0 794.16 371.64
  L 804.08 344.00
  A 0.32 0.32 0.0 0 0 803.67 343.59
  L 774.17 354.89"
/>
</g>
<path fill="#234e4e" fill-opacity="0.557" d="
  M 0.00 0.00
  L 1080.00 0.00
  L 1080.00 1080.00
  L 0.00 1080.00
  L 0.00 0.00
  Z
  M 1079.44 1.49
  A 0.98 0.98 0.0 0 0 1078.46 0.51
  L 1.50 0.51
  A 0.98 0.98 0.0 0 0 0.52 1.49
  L 0.52 1078.45
  A 0.98 0.98 0.0 0 0 1.50 1079.43
  L 1078.46 1079.43
  A 0.98 0.98 0.0 0 0 1079.44 1078.45
  L 1079.44 1.49
  Z"
/>
<path fill="#68ca44" d="
  M 680.24 451.20
  Q 679.37 451.89 677.04 450.18
  Q 683.16 450.03 688.82 449.30
  C 691.02 449.02 693.68 449.08 695.50 448.78
  Q 704.05 447.40 712.56 445.81
  C 745.38 439.66 769.48 417.59 785.07 389.09
  Q 786.97 385.63 789.04 382.27
  A 0.88 0.87 -54.4 0 0 788.86 381.14
  L 763.09 359.60
  A 2.04 2.03 55.4 0 0 761.13 359.24
  Q 733.99 368.45 706.11 375.17
  A 0.44 0.44 0.0 0 0 705.90 375.90
  Q 721.08 391.63 736.15 407.26
  Q 738.35 409.55 738.82 410.67
  C 740.26 414.13 736.62 418.37 733.04 417.46
  Q 731.32 417.03 729.06 414.68
  Q 711.55 396.58 694.24 378.56
  A 1.34 1.34 0.0 0 0 692.99 378.18
  Q 665.88 384.15 638.26 387.04
  A 0.41 0.40 64.3 0 0 638.02 387.73
  Q 653.17 403.08 668.32 418.43
  C 673.39 423.56 666.66 431.53 660.43 425.19
  Q 642.53 406.98 624.88 388.86
  A 1.37 1.32 -22.5 0 0 623.87 388.46
  L 601.20 389.20
  Q 600.86 389.22 600.88 389.56
  C 602.50 409.03 601.51 437.50 573.62 434.97
  L 567.13 432.96
  A 1.29 1.27 -47.3 0 0 566.28 433.00
  L 561.90 434.75
  L 563.61 433.46
  Q 564.00 433.16 563.59 432.91
  Q 560.70 431.12 557.88 429.28
  C 553.61 426.49 550.41 422.61 547.11 418.80
  Q 546.61 418.23 546.40 418.95
  L 545.91 420.67
  Q 545.77 421.16 545.51 421.60
  Q 544.23 423.73 543.09 425.94
  Q 538.75 434.31 529.75 435.80
  C 520.25 437.37 512.15 433.07 506.46 425.75
  Q 507.89 425.88 508.55 427.01
  Q 508.84 427.51 509.26 427.89
  L 512.93 431.23
  Q 513.28 431.55 513.76 431.67
  Q 514.45 431.83 515.09 432.09
  Q 516.29 432.59 516.67 431.62
  Q 516.85 431.15 517.19 430.78
  Q 522.56 424.88 525.42 417.38
  Q 529.55 406.60 533.05 395.57
  Q 533.20 395.08 533.00 394.62
  C 528.55 384.81 526.25 374.85 529.55 364.34
  Q 529.69 363.91 529.35 363.61
  L 521.61 356.55
  Q 521.22 356.20 520.70 356.28
  Q 519.23 356.50 517.24 357.59
  Q 509.01 362.09 504.35 368.12
  Q 503.87 368.74 503.28 368.81
  C 506.68 362.18 515.98 356.69 522.78 354.37
  C 524.28 353.85 525.62 354.15 527.07 353.70
  Q 530.61 352.61 534.34 353.33
  Q 534.84 353.43 535.23 353.11
  Q 541.09 348.40 547.91 345.44
  C 551.21 344.01 555.03 343.77 558.70 342.87
  C 563.10 341.79 566.88 342.03 571.21 341.90
  Q 575.48 342.47 579.60 343.04
  C 596.27 345.36 597.70 365.58 599.81 379.10
  Q 599.83 379.18 599.88 379.12
  L 600.12 378.89
  A 0.51 0.51 0.0 0 1 600.49 378.73
  Q 611.36 378.90 622.20 378.13
  A 0.77 0.76 -81.8 0 0 622.87 377.62
  Q 629.44 359.55 636.06 341.40
  Q 637.79 336.64 642.16 337.56
  C 647.17 338.62 646.43 343.00 645.01 346.86
  Q 639.59 361.71 634.09 376.58
  A 0.40 0.40 0.0 0 0 634.50 377.12
  Q 662.91 374.40 690.78 368.17
  A 0.97 0.96 -88.9 0 0 691.50 367.47
  Q 698.07 343.26 704.55 319.07
  C 705.93 313.94 713.02 313.41 714.39 318.05
  Q 714.95 319.94 714.01 323.43
  Q 708.43 344.12 702.81 364.80
  A 0.43 0.43 0.0 0 0 703.32 365.33
  Q 731.42 358.56 758.78 349.26
  Q 759.30 349.08 759.47 348.56
  Q 769.13 319.62 778.66 290.63
  Q 779.51 288.03 780.31 287.07
  C 783.87 282.79 790.65 286.66 788.78 292.35
  Q 780.27 318.32 771.75 344.11
  A 0.46 0.46 0.0 0 0 772.35 344.68
  L 807.22 331.04
  A 1.47 1.47 0.0 0 0 808.14 329.48
  Q 808.02 328.50 808.37 327.00
  Q 812.57 309.15 815.36 291.04
  Q 816.45 283.96 815.86 278.75
  Q 814.47 266.52 804.63 258.13
  Q 800.53 254.64 794.72 251.53
  Q 796.19 251.05 797.93 250.54
  C 801.49 249.50 808.33 249.79 810.50 250.15
  Q 817.48 251.31 824.07 255.74
  C 829.99 259.72 833.25 264.87 835.81 271.40
  C 837.87 276.69 837.02 283.88 836.99 289.58
  C 836.96 294.25 835.33 298.67 834.91 303.51
  C 834.59 307.25 833.42 310.59 832.92 314.30
  C 832.30 318.85 831.08 323.16 829.87 328.06
  C 828.77 332.54 828.30 336.47 826.42 341.74
  C 822.72 352.08 819.60 363.10 815.82 371.77
  C 810.61 383.73 802.62 398.65 792.34 411.06
  C 788.66 415.51 784.21 419.68 779.96 423.83
  C 772.96 430.67 765.06 434.84 756.55 439.37
  C 752.11 441.73 747.50 442.87 742.72 444.42
  C 740.77 445.06 738.81 444.86 736.95 445.56
  C 732.29 447.31 727.32 446.85 723.23 447.58
  C 719.50 448.25 716.22 448.99 712.21 448.91
  C 707.71 448.82 703.73 449.55 699.07 450.01
  C 696.61 450.25 694.39 450.97 691.96 450.95
  Q 686.73 450.91 680.24 451.20
  Z
  M 774.17 354.89
  A 0.32 0.32 0.0 0 0 774.08 355.43
  L 793.66 371.78
  A 0.32 0.32 0.0 0 0 794.16 371.64
  L 804.08 344.00
  A 0.32 0.32 0.0 0 0 803.67 343.59
  L 774.17 354.89
  Z"
/>
<path fill="#97da7b" d="
  M 794.72 251.53
  Q 800.53 254.64 804.63 258.13
  Q 814.47 266.52 815.86 278.75
  Q 816.45 283.96 815.36 291.04
  Q 812.57 309.15 808.37 327.00
  Q 808.02 328.50 808.14 329.48
  A 1.47 1.47 0.0 0 1 807.22 331.04
  L 772.35 344.68
  A 0.46 0.46 0.0 0 1 771.75 344.11
  Q 780.27 318.32 788.78 292.35
  C 790.65 286.66 783.87 282.79 780.31 287.07
  Q 779.51 288.03 778.66 290.63
  Q 769.13 319.62 759.47 348.56
  Q 759.30 349.08 758.78 349.26
  Q 731.42 358.56 703.32 365.33
  A 0.43 0.43 0.0 0 1 702.81 364.80
  Q 708.43 344.12 714.01 323.43
  Q 714.95 319.94 714.39 318.05
  C 713.02 313.41 705.93 313.94 704.55 319.07
  Q 698.07 343.26 691.50 367.47
  A 0.97 0.96 -88.9 0 1 690.78 368.17
  Q 662.91 374.40 634.50 377.12
  A 0.40 0.40 0.0 0 1 634.09 376.58
  Q 639.59 361.71 645.01 346.86
  C 646.43 343.00 647.17 338.62 642.16 337.56
  Q 637.79 336.64 636.06 341.40
  Q 629.44 359.55 622.87 377.62
  A 0.77 0.76 -81.8 0 1 622.20 378.13
  Q 611.36 378.90 600.49 378.73
  A 0.51 0.51 0.0 0 0 600.12 378.89
  L 599.88 379.12
  Q 599.83 379.18 599.81 379.10
  C 597.70 365.58 596.27 345.36 579.60 343.04
  Q 575.48 342.47 571.21 341.90
  C 595.39 334.29 619.12 325.45 642.72 316.40
  C 643.79 315.99 645.11 315.85 646.09 315.42
  Q 652.79 312.49 662.73 308.79
  C 674.21 304.51 691.23 297.20 705.52 291.51
  Q 715.01 287.73 722.59 284.40
  C 739.30 277.06 755.65 269.70 772.40 261.87
  C 777.54 259.47 786.98 254.56 794.72 251.53
  Z"
/>
<path fill="#97da7b" d="
  M 774.17 354.89
  L 803.67 343.59
  A 0.32 0.32 0.0 0 1 804.08 344.00
  L 794.16 371.64
  A 0.32 0.32 0.0 0 1 793.66 371.78
  L 774.08 355.43
  A 0.32 0.32 0.0 0 1 774.17 354.89
  Z"
/>
<path fill="#97da7b" d="
  M 506.46 425.75
  Q 499.58 417.51 497.33 407.27
  L 496.15 400.72
  L 495.97 399.77
  Q 496.46 398.23 497.46 398.72
  C 517.73 401.58 520.32 374.41 500.38 372.81
  Q 502.22 373.08 502.51 369.96
  L 503.28 368.81
  Q 503.87 368.74 504.35 368.12
  Q 509.01 362.09 517.24 357.59
  Q 519.23 356.50 520.70 356.28
  Q 521.22 356.20 521.61 356.55
  L 529.35 363.61
  Q 529.69 363.91 529.55 364.34
  C 526.25 374.85 528.55 384.81 533.00 394.62
  Q 533.20 395.08 533.05 395.57
  Q 529.55 406.60 525.42 417.38
  Q 522.56 424.88 517.19 430.78
  Q 516.85 431.15 516.67 431.62
  Q 516.29 432.59 515.09 432.09
  Q 514.45 431.83 513.76 431.67
  Q 513.28 431.55 512.93 431.23
  L 509.26 427.89
  Q 508.84 427.51 508.55 427.01
  Q 507.89 425.88 506.46 425.75
  Z"
/>
<path fill="#97da7b" d="
  M 677.04 450.18
  Q 674.46 448.83 671.57 446.69
  Q 659.15 437.50 646.66 428.38
  C 643.28 425.90 640.04 424.17 637.05 428.05
  Q 628.37 439.32 620.92 446.93
  Q 619.14 448.75 616.86 448.31
  L 605.09 446.46
  Q 604.42 445.99 602.61 445.40
  C 598.16 443.95 597.11 435.89 592.74 433.89
  C 589.12 432.24 585.14 435.34 585.84 439.72
  Q 585.94 440.33 585.35 440.16
  Q 579.17 438.31 573.62 434.97
  C 601.51 437.50 602.50 409.03 600.88 389.56
  Q 600.86 389.22 601.20 389.20
  L 623.87 388.46
  A 1.37 1.32 -22.5 0 1 624.88 388.86
  Q 642.53 406.98 660.43 425.19
  C 666.66 431.53 673.39 423.56 668.32 418.43
  Q 653.17 403.08 638.02 387.73
  A 0.41 0.40 64.3 0 1 638.26 387.04
  Q 665.88 384.15 692.99 378.18
  A 1.34 1.34 0.0 0 1 694.24 378.56
  Q 711.55 396.58 729.06 414.68
  Q 731.32 417.03 733.04 417.46
  C 736.62 418.37 740.26 414.13 738.82 410.67
  Q 738.35 409.55 736.15 407.26
  Q 721.08 391.63 705.90 375.90
  A 0.44 0.44 0.0 0 1 706.11 375.17
  Q 733.99 368.45 761.13 359.24
  A 2.04 2.03 55.4 0 1 763.09 359.60
  L 788.86 381.14
  A 0.88 0.87 -54.4 0 1 789.04 382.27
  Q 786.97 385.63 785.07 389.09
  C 769.48 417.59 745.38 439.66 712.56 445.81
  Q 704.05 447.40 695.50 448.78
  C 693.68 449.08 691.02 449.02 688.82 449.30
  Q 683.16 450.03 677.04 450.18
  Z"
/>
<path fill="#47a920" d="
  M 502.51 369.96
  Q 502.22 373.08 500.38 372.81
  Q 492.35 373.56 488.06 381.76
  C 489.15 375.56 494.39 373.90 500.47 371.70
  Q 501.32 371.39 502.51 369.96
  Z"
/>
<path fill="#fd4755" d="
  M 500.38 372.81
  C 520.32 374.41 517.73 401.58 497.46 398.72
  L 490.89 395.08
  Q 489.99 394.10 489.13 392.83
  C 487.37 390.21 487.82 384.80 488.06 381.76
  Q 492.35 373.56 500.38 372.81
  Z"
/>
<path fill="#f4eb04" d="
  M 455.99 406.50
  L 431.86 464.64
  A 0.74 0.73 25.5 0 1 430.83 465.00
  Q 401.95 448.92 369.22 444.35
  C 365.39 443.82 361.49 444.17 357.63 443.35
  C 353.38 442.44 349.68 443.82 345.83 443.83
  Q 331.25 443.87 318.82 451.08
  C 310.23 456.06 305.81 468.39 311.55 476.95
  C 316.76 484.74 330.15 488.90 339.18 491.08
  C 361.30 496.42 384.20 500.55 405.25 507.26
  C 419.18 511.70 432.83 518.15 445.07 528.18
  C 448.83 531.27 452.47 535.63 455.04 539.20
  C 461.83 548.59 466.26 559.57 467.01 571.18
  C 467.14 573.17 467.80 575.09 467.85 576.95
  C 467.98 581.41 468.16 585.56 467.37 590.13
  C 466.97 592.41 466.98 594.80 466.55 596.89
  C 457.99 639.19 422.43 662.40 382.28 669.75
  Q 371.94 671.65 368.75 671.84
  Q 364.31 672.10 361.56 672.36
  Q 356.23 672.87 354.41 672.91
  C 340.16 673.19 326.36 673.00 311.82 671.23
  C 286.48 668.15 264.16 662.13 241.93 651.80
  Q 233.71 647.98 225.60 642.33
  A 1.09 1.06 -60.9 0 1 225.24 641.01
  L 250.71 583.70
  A 0.79 0.79 0.0 0 1 251.83 583.34
  C 267.61 592.73 284.31 600.26 301.97 605.08
  C 310.92 607.52 318.27 608.56 325.75 609.54
  C 330.89 610.22 335.54 609.62 340.49 610.68
  C 344.83 611.60 348.22 610.07 352.25 610.09
  C 366.68 610.17 390.86 604.97 389.00 585.75
  C 387.52 570.49 358.86 564.12 347.22 561.65
  C 323.25 556.55 308.20 552.71 293.80 548.19
  C 278.68 543.44 263.75 536.34 251.84 526.02
  C 248.14 522.82 245.05 518.59 241.82 514.69
  Q 238.76 511.00 235.77 503.86
  Q 230.99 492.43 230.19 483.25
  Q 229.71 477.62 230.04 465.20
  C 230.12 462.41 230.75 459.59 231.20 456.50
  Q 232.28 449.17 235.44 441.47
  C 243.73 421.29 257.84 407.22 277.33 397.36
  C 282.17 394.91 287.05 392.30 292.04 390.50
  Q 308.12 384.68 320.76 383.26
  C 324.88 382.79 328.22 382.24 332.27 382.05
  C 335.52 381.89 338.71 381.08 341.77 381.05
  Q 354.05 380.91 366.33 381.06
  C 368.09 381.09 370.02 381.61 371.49 381.71
  Q 408.65 384.21 442.89 398.68
  Q 449.52 401.48 455.62 405.33
  Q 456.30 405.76 455.99 406.50
  Z"
/>
<path fill="#47a920" d="
  M 490.89 395.08
  L 497.46 398.72
  Q 496.46 398.23 495.97 399.77
  C 495.11 397.94 492.28 397.27 490.89 395.08
  Z"
/>
<path fill="#47a920" d="
  M 496.15 400.72
  L 497.33 407.27
  Q 495.42 404.58 496.15 400.72
  Z"
/>
<path fill="#47a920" d="
  M 677.04 450.18
  Q 679.37 451.89 680.24 451.20
  Q 682.95 453.95 685.96 455.98
  Q 691.17 459.50 692.04 460.17
  C 697.15 464.13 702.85 468.01 707.64 471.64
  Q 715.89 477.90 724.34 483.90
  C 726.52 485.44 728.43 484.89 730.85 485.00
  C 735.44 485.21 740.27 486.62 744.84 487.37
  C 747.88 487.87 747.69 495.95 745.25 497.37
  C 743.09 498.63 736.00 498.08 733.49 497.61
  Q 728.44 496.64 723.36 495.91
  Q 720.63 495.52 718.44 494.22
  C 712.29 490.57 707.08 486.01 701.36 481.99
  C 689.17 473.42 677.38 464.19 665.02 455.89
  C 662.98 454.52 661.58 452.70 659.28 451.32
  Q 660.01 450.93 657.90 449.35
  Q 650.33 443.70 642.75 438.21
  A 0.33 0.32 -49.9 0 0 642.32 438.25
  Q 636.66 444.19 632.11 451.09
  C 627.40 456.72 620.37 463.52 613.10 465.51
  Q 610.92 466.10 608.91 465.42
  Q 602.74 463.33 598.18 458.79
  C 595.60 456.23 593.09 452.04 590.27 448.94
  Q 588.95 447.49 588.99 449.45
  C 589.06 454.25 588.75 459.03 589.59 463.79
  Q 590.34 468.13 591.20 472.66
  A 1.62 1.62 0.0 0 0 592.81 473.97
  C 597.74 473.87 602.05 475.63 607.01 476.04
  C 613.04 476.53 618.76 478.04 624.81 478.02
  Q 625.30 478.02 625.65 478.35
  C 629.47 481.92 630.29 484.30 631.42 488.54
  Q 631.94 490.51 631.43 492.43
  C 630.79 494.83 630.30 497.63 629.03 499.55
  C 626.02 504.10 618.12 502.37 617.97 496.77
  C 617.92 494.96 618.87 492.91 619.53 491.04
  Q 619.72 490.53 619.23 490.29
  C 616.20 488.79 612.89 489.05 609.97 488.43
  C 606.92 487.79 604.03 488.23 601.08 487.44
  Q 596.84 486.30 592.49 485.85
  Q 589.99 485.60 583.04 482.31
  Q 582.60 482.11 582.35 481.70
  C 580.26 478.29 579.70 475.06 578.63 470.49
  C 577.64 466.23 578.65 462.00 577.46 457.96
  C 576.67 455.26 577.05 452.09 576.98 449.29
  C 576.92 446.68 575.55 444.07 576.18 441.08
  A 0.80 0.80 0.0 0 0 574.93 440.26
  L 547.42 460.10
  A 0.90 0.89 -28.1 0 0 547.10 461.14
  C 547.78 463.02 548.20 465.05 548.92 466.85
  Q 553.60 478.43 558.84 489.76
  Q 559.04 490.19 558.98 490.67
  C 558.23 497.19 553.50 499.67 547.52 501.62
  C 541.79 503.49 535.47 500.96 537.21 493.76
  C 537.91 490.88 542.93 490.11 545.40 489.99
  Q 546.05 489.96 545.75 489.39
  C 545.22 488.39 544.38 487.82 543.94 486.79
  Q 539.58 476.43 535.89 465.82
  C 534.63 462.20 534.95 458.87 535.04 455.17
  A 2.29 2.27 -17.5 0 1 535.99 453.36
  L 561.90 434.75
  L 566.28 433.00
  A 1.29 1.27 -47.3 0 1 567.13 432.96
  L 573.62 434.97
  Q 579.17 438.31 585.35 440.16
  Q 585.94 440.33 585.84 439.72
  C 585.14 435.34 589.12 432.24 592.74 433.89
  C 597.11 435.89 598.16 443.95 602.61 445.40
  Q 604.42 445.99 605.09 446.46
  Q 604.56 446.27 604.12 446.44
  Q 603.57 446.66 603.91 447.13
  Q 605.84 449.79 608.39 451.87
  C 609.37 452.67 610.28 453.64 611.64 453.17
  Q 615.75 451.74 616.86 448.31
  Q 619.14 448.75 620.92 446.93
  Q 628.37 439.32 637.05 428.05
  C 640.04 424.17 643.28 425.90 646.66 428.38
  Q 659.15 437.50 671.57 446.69
  Q 674.46 448.83 677.04 450.18
  Z"
/>
<path fill="#97da7b" d="
  M 659.28 451.32
  L 632.11 451.09
  Q 636.66 444.19 642.32 438.25
  A 0.33 0.32 -49.9 0 1 642.75 438.21
  Q 650.33 443.70 657.90 449.35
  Q 660.01 450.93 659.28 451.32
  Z"
/>
<path fill="#f4eb04" d="
  M 652.22 519.35
  C 654.52 517.15 656.70 514.51 659.07 512.73
  C 668.92 505.38 680.32 502.98 691.53 501.53
  C 695.66 501.00 699.78 500.68 703.00 501.09
  C 708.14 501.74 713.54 502.21 718.26 503.28
  Q 743.35 508.97 759.46 527.04
  C 769.59 538.41 777.62 555.62 779.02 572.72
  C 779.22 575.20 779.90 577.57 779.94 579.94
  Q 780.05 585.50 779.95 591.06
  C 779.91 593.98 779.16 597.18 778.90 600.37
  C 777.67 615.60 770.31 631.50 760.45 643.03
  C 758.63 645.16 757.13 647.35 755.01 649.15
  C 742.99 659.38 731.18 665.84 715.48 668.60
  C 712.35 669.15 709.48 669.89 706.30 669.94
  C 698.47 670.06 690.91 670.29 683.03 668.49
  C 671.80 665.92 662.94 661.89 655.49 653.97
  Q 654.59 653.00 654.80 654.31
  Q 654.90 654.93 654.90 656.00
  Q 655.04 690.71 655.00 725.43
  Q 655.00 725.92 654.50 725.92
  L 597.46 725.92
  Q 597.00 725.92 597.00 725.46
  L 597.00 504.25
  A 0.25 0.24 -0.0 0 1 597.25 504.01
  L 651.51 504.00
  A 0.51 0.51 0.0 0 1 652.02 504.51
  L 651.95 519.24
  Q 651.95 519.61 652.22 519.35
  Z
  M 661.69 611.53
  C 668.18 620.30 679.47 624.98 690.24 623.93
  C 704.94 622.51 716.66 612.67 720.07 598.17
  C 721.39 592.58 721.67 582.40 720.79 577.26
  C 718.30 562.87 707.89 549.17 692.39 547.86
  C 690.64 547.71 688.85 546.79 686.81 547.18
  Q 683.28 547.84 683.12 547.86
  C 671.32 548.75 661.94 556.91 657.20 567.40
  C 653.83 574.86 653.23 585.01 654.27 592.99
  Q 655.62 603.32 661.69 611.53
  Z"
/>
<path fill="#f4eb04" d="
  M 472.00 666.39
  L 472.00 504.61
  A 0.61 0.61 0.0 0 1 472.61 504.00
  L 529.34 504.00
  A 0.61 0.61 0.0 0 1 529.95 504.61
  L 529.95 666.38
  A 0.61 0.61 0.0 0 1 529.34 666.99
  L 472.61 667.00
  A 0.61 0.61 0.0 0 1 472.00 666.39
  Z"
/>
<rect fill="#f4eb04" x="534.06" y="504.00" width="57.94" height="163.00" rx="0.71"/>
</svg>
